<svg width="58" height="80" viewBox="0 0 58 80" fill="none" xmlns="http://www.w3.org/2000/svg">
<path d="M0.335938 65.1564V56.471H3.86739C4.51626 56.471 5.05746 56.5658 5.491 56.7552C5.92454 56.9446 6.25041 57.2075 6.46861 57.544C6.68681 57.8776 6.79592 58.2621 6.79592 58.6975C6.79592 59.0368 6.72701 59.3351 6.5892 59.5923C6.45138 59.8468 6.26189 60.056 6.02072 60.22C5.78242 60.3811 5.50966 60.4956 5.20245 60.5635V60.6483C5.53837 60.6625 5.85276 60.7558 6.14561 60.9282C6.44133 61.1007 6.68107 61.3424 6.86482 61.6534C7.04857 61.9616 7.14045 62.3291 7.14045 62.756C7.14045 63.2169 7.02417 63.6283 6.79161 63.9901C6.56192 64.3492 6.2217 64.6333 5.77093 64.8426C5.32017 65.0518 4.76461 65.1564 4.10426 65.1564H0.335938ZM2.20072 63.6551H3.72097C4.24064 63.6551 4.61962 63.5576 4.85792 63.3625C5.09622 63.1646 5.21537 62.9016 5.21537 62.5737C5.21537 62.3334 5.15652 62.1213 5.0388 61.9375C4.92109 61.7538 4.75313 61.6096 4.53492 61.505C4.31959 61.4004 4.06263 61.3481 3.76403 61.3481H2.20072V63.6551ZM2.20072 60.1055H3.58315C3.83868 60.1055 4.0655 60.0617 4.2636 59.974C4.46458 59.8835 4.62249 59.7563 4.73734 59.5923C4.85505 59.4284 4.91391 59.2319 4.91391 59.0029C4.91391 58.689 4.8005 58.436 4.57368 58.2437C4.34974 58.0515 4.03104 57.9554 3.61761 57.9554H2.20072V60.1055Z" fill="black"/>
<path d="M8.31939 65.1564V58.6424H10.154V65.1564H8.31939ZM9.24102 57.8027C8.96826 57.8027 8.73427 57.7136 8.53903 57.5355C8.34667 57.3546 8.25049 57.1383 8.25049 56.8866C8.25049 56.6378 8.34667 56.4244 8.53903 56.2463C8.73427 56.0653 8.96826 55.9749 9.24102 55.9749C9.51377 55.9749 9.74633 56.0653 9.93869 56.2463C10.1339 56.4244 10.2315 56.6378 10.2315 56.8866C10.2315 57.1383 10.1339 57.3546 9.93869 57.5355C9.74633 57.7136 9.51377 57.8027 9.24102 57.8027Z" fill="black"/>
<path d="M11.6581 65.1564V56.471H13.4928V59.7365H13.5487C13.6291 59.5612 13.7454 59.3831 13.8976 59.2022C14.0526 59.0184 14.2536 58.8657 14.5005 58.7442C14.7503 58.6198 15.0604 58.5576 15.4308 58.5576C15.9131 58.5576 16.3581 58.682 16.7658 58.9308C17.1735 59.1767 17.4994 59.5485 17.7434 60.0461C17.9875 60.5409 18.1095 61.1615 18.1095 61.9079C18.1095 62.6345 17.9903 63.248 17.752 63.7484C17.5166 64.246 17.195 64.6234 16.7873 64.8807C16.3825 65.1352 15.9289 65.2624 15.4264 65.2624C15.0704 65.2624 14.7675 65.2045 14.5177 65.0885C14.2708 64.9726 14.0684 64.827 13.9105 64.6517C13.7526 64.4736 13.632 64.2941 13.5487 64.1131H13.4669V65.1564H11.6581ZM13.454 61.8994C13.454 62.2867 13.5085 62.6246 13.6177 62.913C13.7268 63.2013 13.8847 63.4261 14.0914 63.5873C14.2981 63.7456 14.5493 63.8247 14.845 63.8247C15.1436 63.8247 15.3963 63.7442 15.603 63.583C15.8097 63.419 15.9662 63.1929 16.0724 62.9045C16.1815 62.6133 16.2361 62.2782 16.2361 61.8994C16.2361 61.5234 16.183 61.1926 16.0768 60.907C15.9705 60.6215 15.814 60.3981 15.6073 60.237C15.4006 60.0758 15.1465 59.9952 14.845 59.9952C14.5465 59.9952 14.2938 60.073 14.0871 60.2285C13.8832 60.384 13.7268 60.6045 13.6177 60.89C13.5085 61.1756 13.454 61.512 13.454 61.8994Z" fill="black"/>
<path d="M21.1683 56.471V65.1564H19.3337V56.471H21.1683Z" fill="black"/>
<path d="M22.6379 65.1564V58.6424H24.4726V65.1564H22.6379ZM23.5596 57.8027C23.2868 57.8027 23.0528 57.7136 22.8576 57.5355C22.6652 57.3546 22.569 57.1383 22.569 56.8866C22.569 56.6378 22.6652 56.4244 22.8576 56.2463C23.0528 56.0653 23.2868 55.9749 23.5596 55.9749C23.8323 55.9749 24.0649 56.0653 24.2572 56.2463C24.4525 56.4244 24.5501 56.6378 24.5501 56.8866C24.5501 57.1383 24.4525 57.3546 24.2572 57.5355C24.0649 57.7136 23.8323 57.8027 23.5596 57.8027Z" fill="black"/>
<path d="M28.931 65.2836C28.2621 65.2836 27.6835 65.1437 27.1954 64.8638C26.7102 64.581 26.3356 64.1881 26.0714 63.6848C25.8073 63.1787 25.6752 62.5921 25.6752 61.9248C25.6752 61.2519 25.8073 60.6639 26.0714 60.1606C26.3356 59.6545 26.7102 59.2615 27.1954 58.9816C27.6835 58.6989 28.2621 58.5576 28.931 58.5576C29.6 58.5576 30.1771 58.6989 30.6623 58.9816C31.1504 59.2615 31.5265 59.6545 31.7906 60.1606C32.0548 60.6639 32.1869 61.2519 32.1869 61.9248C32.1869 62.5921 32.0548 63.1787 31.7906 63.6848C31.5265 64.1881 31.1504 64.581 30.6623 64.8638C30.1771 65.1437 29.6 65.2836 28.931 65.2836ZM28.9396 63.8841C29.244 63.8841 29.4981 63.7993 29.7019 63.6297C29.9058 63.4572 30.0594 63.2225 30.1627 62.9257C30.269 62.6288 30.3221 62.291 30.3221 61.9121C30.3221 61.5333 30.269 61.1954 30.1627 60.8985C30.0594 60.6017 29.9058 60.367 29.7019 60.1945C29.4981 60.0221 29.244 59.9358 28.9396 59.9358C28.6324 59.9358 28.374 60.0221 28.1644 60.1945C27.9577 60.367 27.8012 60.6017 27.695 60.8985C27.5917 61.1954 27.54 61.5333 27.54 61.9121C27.54 62.291 27.5917 62.6288 27.695 62.9257C27.8012 63.2225 27.9577 63.4572 28.1644 63.6297C28.374 63.7993 28.6324 63.8841 28.9396 63.8841Z" fill="black"/>
<path d="M36.8983 58.6424V59.9995H32.9147V58.6424H36.8983ZM33.8191 57.0817H35.6537V63.1547C35.6537 63.3215 35.6796 63.4515 35.7312 63.5448C35.7829 63.6353 35.8547 63.6989 35.9466 63.7357C36.0413 63.7724 36.1504 63.7908 36.2739 63.7908C36.36 63.7908 36.4461 63.7838 36.5323 63.7696C36.6184 63.7527 36.6844 63.7399 36.7304 63.7314L37.0189 65.0758C36.9271 65.1041 36.7978 65.1366 36.6313 65.1734C36.4648 65.2129 36.2624 65.237 36.0241 65.2454C35.5819 65.2624 35.1943 65.2045 34.8613 65.0716C34.5311 64.9387 34.2742 64.7323 34.0904 64.4524C33.9066 64.1725 33.8162 63.8191 33.8191 63.3922V57.0817Z" fill="black"/>
<path d="M41.037 65.2836C40.3566 65.2836 39.7709 65.1479 39.2799 64.8765C38.7918 64.6022 38.4157 64.2149 38.1516 63.7145C37.8874 63.2112 37.7554 62.6161 37.7554 61.9291C37.7554 61.259 37.8874 60.6709 38.1516 60.1649C38.4157 59.6588 38.7875 59.2644 39.267 58.9816C39.7493 58.6989 40.3149 58.5576 40.9638 58.5576C41.4002 58.5576 41.8065 58.6268 42.1826 58.7654C42.5616 58.9011 42.8918 59.106 43.1731 59.3803C43.4574 59.6545 43.6784 59.9995 43.8364 60.4151C43.9943 60.8278 44.0732 61.3113 44.0732 61.8655V62.3616H38.4875V61.242H42.3463C42.3463 60.9819 42.2888 60.7515 42.174 60.5508C42.0591 60.35 41.8998 60.1931 41.6959 60.08C41.495 59.9641 41.261 59.9062 40.994 59.9062C40.7155 59.9062 40.4685 59.9698 40.2532 60.097C40.0408 60.2214 39.8742 60.3896 39.7536 60.6017C39.6331 60.8109 39.5713 61.0441 39.5685 61.3014V62.3659C39.5685 62.6882 39.6288 62.9667 39.7493 63.2013C39.8728 63.436 40.0465 63.6169 40.2704 63.7442C40.4944 63.8714 40.76 63.935 41.0672 63.935C41.271 63.935 41.4576 63.9067 41.627 63.8502C41.7964 63.7936 41.9414 63.7088 42.062 63.5957C42.1826 63.4826 42.2745 63.3441 42.3376 63.1801L44.0345 63.2904C43.9483 63.6919 43.7718 64.0424 43.5047 64.3421C43.2406 64.639 42.8989 64.8708 42.4798 65.0376C42.0634 65.2016 41.5825 65.2836 41.037 65.2836Z" fill="black"/>
<path d="M48.2593 65.2836C47.5817 65.2836 46.9989 65.1423 46.5108 64.8595C46.0256 64.574 45.6523 64.1782 45.3911 63.6721C45.1327 63.166 45.0035 62.5836 45.0035 61.9248C45.0035 61.2576 45.1341 60.6723 45.3954 60.1691C45.6595 59.663 46.0342 59.2686 46.5194 58.9859C47.0046 58.7003 47.5817 58.5576 48.2507 58.5576C48.8278 58.5576 49.3331 58.6608 49.7666 58.8671C50.2001 59.0735 50.5432 59.3633 50.7959 59.7365C51.0486 60.1097 51.1878 60.548 51.2136 61.0512H49.4824C49.4336 60.7261 49.3044 60.4645 49.0948 60.2666C48.8881 60.0659 48.6167 59.9655 48.2808 59.9655C47.9966 59.9655 47.7482 60.0419 47.5358 60.1945C47.3262 60.3444 47.1625 60.5635 47.0448 60.8519C46.9271 61.1403 46.8682 61.4894 46.8682 61.8994C46.8682 62.315 46.9257 62.6684 47.0405 62.9596C47.1582 63.2508 47.3233 63.4728 47.5358 63.6254C47.7482 63.7781 47.9966 63.8544 48.2808 63.8544C48.4904 63.8544 48.6785 63.812 48.845 63.7272C49.0144 63.6424 49.1536 63.5194 49.2627 63.3582C49.3747 63.1943 49.4479 62.9978 49.4824 62.7688H51.2136C51.1849 63.2664 51.0471 63.7046 50.8002 64.0834C50.5562 64.4595 50.2188 64.7535 49.7881 64.9655C49.3575 65.1776 48.8479 65.2836 48.2593 65.2836Z" fill="black"/>
<path d="M54.2746 65.2794C53.8525 65.2794 53.4764 65.2073 53.1463 65.0631C52.8161 64.9161 52.5548 64.6998 52.3624 64.4142C52.173 64.1259 52.0782 63.7668 52.0782 63.337C52.0782 62.9752 52.1457 62.6712 52.2806 62.4253C52.4156 62.1793 52.5993 61.9814 52.8319 61.8315C53.0644 61.6817 53.3286 61.5686 53.6243 61.4923C53.9229 61.4159 54.2358 61.3622 54.5631 61.3311C54.9479 61.2915 55.258 61.2548 55.4934 61.2208C55.7288 61.1841 55.8996 61.1304 56.0059 61.0597C56.1121 60.989 56.1652 60.8844 56.1652 60.7459V60.7204C56.1652 60.4518 56.0791 60.244 55.9068 60.097C55.7374 59.95 55.4963 59.8765 55.1833 59.8765C54.8531 59.8765 54.5904 59.9486 54.3952 60.0928C54.2 60.2341 54.0708 60.4122 54.0076 60.6271L52.3108 60.4914C52.3969 60.0956 52.5663 59.7535 52.819 59.4651C53.0716 59.1739 53.3975 58.9505 53.7966 58.795C54.1985 58.6367 54.6636 58.5576 55.1919 58.5576C55.5594 58.5576 55.9111 58.6 56.247 58.6848C56.5858 58.7696 56.8859 58.9011 57.1471 59.0792C57.4113 59.2573 57.6194 59.4863 57.7716 59.7662C57.9238 60.0433 57.9999 60.3755 57.9999 60.7628V65.1564H56.26V64.2531H56.2083C56.1021 64.4566 55.9599 64.6362 55.7819 64.7917C55.6039 64.9443 55.39 65.0645 55.1402 65.1521C54.8905 65.237 54.6019 65.2794 54.2746 65.2794ZM54.8 64.0326C55.0699 64.0326 55.3082 63.9802 55.5149 63.8756C55.7216 63.7682 55.8838 63.624 56.0016 63.4431C56.1193 63.2621 56.1781 63.0571 56.1781 62.8281V62.1369C56.1207 62.1736 56.0418 62.2076 55.9413 62.2387C55.8437 62.2669 55.7331 62.2938 55.6097 62.3192C55.4862 62.3418 55.3627 62.3631 55.2393 62.3828C55.1158 62.3998 55.0039 62.4154 54.9034 62.4295C54.688 62.4606 54.5 62.5101 54.3392 62.5779C54.1784 62.6458 54.0535 62.7377 53.9645 62.8536C53.8755 62.9667 53.831 63.108 53.831 63.2777C53.831 63.5236 53.9215 63.7117 54.1023 63.8417C54.2861 63.9689 54.5186 64.0326 54.8 64.0326Z" fill="black"/>
<path d="M0 70.3859V68.8719H7.24379V70.3859H4.54352V77.5573H2.70027V70.3859H0Z" fill="#2F80ED"/>
<path d="M7.71537 77.5573V71.0433H9.49401V72.1798H9.56292C9.68351 71.7755 9.88592 71.4702 10.1702 71.2638C10.4544 71.0546 10.7817 70.95 11.1521 70.95C11.2439 70.95 11.343 70.9556 11.4492 70.9669C11.5555 70.9782 11.6488 70.9938 11.7292 71.0136V72.6166C11.643 72.5912 11.5239 72.5686 11.3717 72.5488C11.2195 72.529 11.0803 72.5191 10.954 72.5191C10.6841 72.5191 10.4429 72.577 10.2304 72.693C10.0209 72.8061 9.85434 72.9644 9.73088 73.1679C9.61029 73.3715 9.55 73.6062 9.55 73.8719V77.5573H7.71537Z" fill="#2F80ED"/>
<path d="M12.6777 77.5573V71.0433H14.5123V77.5573H12.6777ZM13.5993 70.2036C13.3266 70.2036 13.0926 70.1145 12.8973 69.9364C12.705 69.7554 12.6088 69.5392 12.6088 69.2875C12.6088 69.0387 12.705 68.8253 12.8973 68.6472C13.0926 68.4662 13.3266 68.3757 13.5993 68.3757C13.8721 68.3757 14.1046 68.4662 14.297 68.6472C14.4922 68.8253 14.5899 69.0387 14.5899 69.2875C14.5899 69.5392 14.4922 69.7554 14.297 69.9364C14.1046 70.1145 13.8721 70.2036 13.5993 70.2036Z" fill="#2F80ED"/>
<path d="M15.982 80V71.0433H17.7908V72.1374H17.8726C17.953 71.9621 18.0693 71.784 18.2214 71.6031C18.3765 71.4193 18.5775 71.2666 18.8244 71.145C19.0742 71.0206 19.3842 70.9584 19.7546 70.9584C20.237 70.9584 20.682 71.0828 21.0897 71.3316C21.4974 71.5776 21.8232 71.9494 22.0673 72.447C22.3113 72.9418 22.4333 73.5623 22.4333 74.3087C22.4333 75.0353 22.3142 75.6489 22.0759 76.1493C21.8405 76.6469 21.5189 77.0243 21.1112 77.2816C20.7064 77.5361 20.2527 77.6633 19.7503 77.6633C19.3943 77.6633 19.0914 77.6053 18.8416 77.4894C18.5947 77.3735 18.3923 77.2279 18.2344 77.0526C18.0765 76.8745 17.9559 76.695 17.8726 76.514H17.8166V80H15.982ZM17.7779 74.3003C17.7779 74.6876 17.8324 75.0255 17.9415 75.3138C18.0506 75.6022 18.2085 75.827 18.4152 75.9881C18.622 76.1465 18.8732 76.2256 19.1689 76.2256C19.4675 76.2256 19.7202 76.145 19.9269 75.9839C20.1336 75.8199 20.2901 75.5937 20.3963 75.3054C20.5054 75.0141 20.56 74.6791 20.56 74.3003C20.56 73.9242 20.5068 73.5934 20.4006 73.3079C20.2944 73.0223 20.1379 72.799 19.9312 72.6378C19.7245 72.4767 19.4704 72.3961 19.1689 72.3961C18.8703 72.3961 18.6177 72.4738 18.4109 72.6293C18.2071 72.7848 18.0506 73.0054 17.9415 73.2909C17.8324 73.5765 17.7779 73.9129 17.7779 74.3003Z" fill="#2F80ED"/>
<path d="M25.4911 68.8719V77.5573H23.6564V68.8719H25.4911Z" fill="#2F80ED"/>
<path d="M29.9754 77.6845C29.2949 77.6845 28.7092 77.5488 28.2183 77.2774C27.7302 77.0031 27.3541 76.6158 27.0899 76.1154C26.8258 75.6121 26.6937 75.017 26.6937 74.3299C26.6937 73.6599 26.8258 73.0718 27.0899 72.5657C27.3541 72.0597 27.7259 71.6653 28.2053 71.3825C28.6877 71.0998 29.2533 70.9584 29.9022 70.9584C30.3386 70.9584 30.7448 71.0277 31.1209 71.1662C31.4999 71.3019 31.8301 71.5069 32.1115 71.7812C32.3957 72.0554 32.6168 72.4003 32.7747 72.8159C32.9326 73.2287 33.0116 73.7122 33.0116 74.2663V74.7625H27.4258V73.6429H31.2846C31.2846 73.3828 31.2272 73.1524 31.1123 72.9517C30.9975 72.7509 30.8381 72.594 30.6343 72.4809C30.4333 72.365 30.1993 72.307 29.9323 72.307C29.6538 72.307 29.4069 72.3707 29.1916 72.4979C28.9791 72.6223 28.8126 72.7905 28.692 73.0025C28.5714 73.2118 28.5097 73.445 28.5068 73.7023V74.7668C28.5068 75.0891 28.5671 75.3676 28.6877 75.6022C28.8111 75.8369 28.9848 76.0178 29.2088 76.145C29.4327 76.2723 29.6983 76.3359 30.0055 76.3359C30.2094 76.3359 30.396 76.3076 30.5654 76.2511C30.7348 76.1945 30.8798 76.1097 31.0004 75.9966C31.1209 75.8835 31.2128 75.745 31.276 75.581L32.9728 75.6913C32.8867 76.0927 32.7101 76.4433 32.4431 76.743C32.1789 77.0399 31.8373 77.2717 31.4181 77.4385C31.0018 77.6025 30.5209 77.6845 29.9754 77.6845Z" fill="#2F80ED"/>
<path fill-rule="evenodd" clip-rule="evenodd" d="M0 4.5542L19.2556 11.0284V39.5686L0 33.0945V4.5542ZM2.04716 7.37267V31.6526L17.2084 36.7502V12.4702L2.04716 7.37267Z" fill="black"/>
<path fill-rule="evenodd" clip-rule="evenodd" d="M9.25049 0L28.506 6.47417V35.0144L9.25049 28.5403V0ZM11.2976 2.81847V27.0984L26.4589 32.196V7.91603L11.2976 2.81847Z" fill="black"/>
</svg>
